<svg width="135" height="46" viewBox="0 0 135 46" fill="none" xmlns="http://www.w3.org/2000/svg">
<path d="M130.534 0H4.4C1.96995 0 0 2.01758 0 4.5064V40.5576C0 43.0464 1.96995 45.064 4.4 45.064H130.534C132.964 45.064 134.934 43.0464 134.934 40.5576V4.5064C134.934 2.01758 132.964 0 130.534 0Z" fill="black"/>
<path d="M27.7815 22.401C27.7958 21.3759 28.063 20.3712 28.5581 19.4802C29.0533 18.5892 29.7603 17.8408 30.6135 17.3047C30.0701 16.5119 29.3537 15.8598 28.5211 15.4002C27.6886 14.9406 26.7628 14.6862 25.8175 14.6572C23.7995 14.4411 21.8435 15.8903 20.8145 15.8903C19.7665 15.8903 18.1835 14.6787 16.4785 14.7145C15.3759 14.7507 14.3011 15.0781 13.3585 15.665C12.4172 16.2513 11.6403 17.0773 11.1035 18.0626C8.77947 22.1716 10.5135 28.2122 12.7395 31.5336C13.8525 33.16 15.1545 34.9779 16.8585 34.9134C18.5245 34.8417 19.1475 33.8278 21.1595 33.8278C23.1525 33.8278 23.7375 34.9134 25.4745 34.8724C27.2645 34.8417 28.3905 33.2378 29.4645 31.5961C30.2646 30.4375 30.8806 29.1564 31.2895 27.8005C30.2508 27.352 29.364 26.6005 28.7395 25.6395C28.1161 24.68 27.7828 23.5535 27.7815 22.401ZM24.4995 12.4726C25.4746 11.2782 25.9554 9.74086 25.8395 8.18848C24.3503 8.34775 22.9742 9.07495 21.9845 10.2256C21.5016 10.7868 21.1315 11.44 20.8956 12.1479C20.6596 12.8558 20.5624 13.6045 20.6095 14.351C21.3542 14.3587 22.091 14.1938 22.7647 13.8685C23.4384 13.5432 24.0314 13.066 24.4995 12.4726ZM47.7795 30.958H42.3095L40.9965 34.9195H38.6795L43.8595 20.2635H46.2675L51.4485 34.9195H49.0935L47.7805 30.958H47.7795ZM42.8765 29.1299H47.2125L45.0745 22.7011H45.0145L42.8765 29.1299ZM62.6385 29.5785C62.6385 32.8978 60.8985 35.0312 58.2725 35.0312C57.6079 35.0664 56.9471 34.9099 56.3651 34.5795C55.7831 34.249 55.3034 33.7579 54.9805 33.1621H54.9305V38.455H52.7825V24.2343H54.8625V26.0112H54.9015C55.238 25.4174 55.7256 24.9281 56.3121 24.5955C56.8987 24.2629 57.5624 24.0995 58.2325 24.1227C60.8875 24.1227 62.6385 26.2663 62.6385 29.5774V29.5785ZM60.4305 29.5785C60.4305 27.4144 59.3365 25.9918 57.6655 25.9918C56.0255 25.9918 54.9215 27.4441 54.9215 29.5774C54.9215 31.7303 56.0255 33.1723 57.6655 33.1723C59.3355 33.1723 60.4305 31.761 60.4305 29.5774V29.5785ZM74.1535 29.5785C74.1535 32.8978 72.4135 35.0312 69.7875 35.0312C69.1229 35.0664 68.4621 34.9099 67.8801 34.5795C67.2981 34.249 66.8184 33.7579 66.4955 33.1621H66.4455V38.455H64.2985V24.2343H66.3765V26.0112H66.4165C66.753 25.4174 67.2406 24.9281 67.8271 24.5955C68.4137 24.2629 69.0774 24.0995 69.7475 24.1227C72.4035 24.1227 74.1535 26.2663 74.1535 29.5774V29.5785ZM71.9465 29.5785C71.9465 27.4144 70.8515 25.9918 69.1815 25.9918C67.5405 25.9918 66.4365 27.4441 66.4365 29.5774C66.4365 31.7303 67.5405 33.1723 69.1815 33.1723C70.8515 33.1723 71.9465 31.761 71.9465 29.5774V29.5785ZM81.7635 30.8361C81.9235 32.2905 83.3055 33.243 85.1945 33.243C87.0045 33.243 88.3075 32.2905 88.3075 30.9795C88.3075 29.8417 87.5215 29.1606 85.6625 28.6936L83.8025 28.2358C81.1675 27.5864 79.9435 26.3277 79.9435 24.2845C79.9435 21.7558 82.1015 20.0188 85.1635 20.0188C88.1975 20.0188 90.2765 21.7558 90.3465 24.2845H88.1785C88.0485 22.8219 86.8645 21.9391 85.1345 21.9391C83.4045 21.9391 82.2215 22.8322 82.2215 24.1329C82.2215 25.1694 82.9775 25.7788 84.8265 26.2458L86.4075 26.6421C89.3525 27.3529 90.5745 28.5604 90.5745 30.7051C90.5745 33.4468 88.4365 35.1643 85.0355 35.1643C81.8535 35.1643 79.7045 33.4867 79.5655 30.8361H81.7635ZM95.2115 21.7056V24.2343H97.2015V25.9713H95.2115V31.8624C95.2115 32.777 95.6095 33.204 96.4845 33.204C96.7205 33.1989 96.9565 33.1825 97.1905 33.1528V34.8796C96.7975 34.9546 96.3981 34.9886 95.9985 34.981C93.8795 34.981 93.0535 34.1678 93.0535 32.0959V25.9713H91.5335V24.2343H93.0545V21.7046H95.2125L95.2115 21.7056ZM98.3525 29.5785C98.3525 26.215 100.29 24.1032 103.314 24.1032C106.347 24.1032 108.277 26.2161 108.277 29.5774C108.277 32.949 106.357 35.0527 103.314 35.0527C100.271 35.0527 98.3525 32.949 98.3525 29.5774V29.5785ZM106.089 29.5785C106.089 27.271 105.054 25.9098 103.314 25.9098C101.574 25.9098 100.539 27.2822 100.539 29.5774C100.539 31.8931 101.574 33.244 103.314 33.244C105.054 33.244 106.089 31.8931 106.089 29.5774V29.5785ZM110.048 24.2343H112.096V26.0532H112.145C112.285 25.4842 112.611 24.9816 113.069 24.63C113.528 24.2784 114.09 24.0992 114.662 24.1227C114.91 24.1216 115.156 24.1493 115.398 24.2046V26.256C115.086 26.1583 114.76 26.1133 114.433 26.1229C114.122 26.1101 113.811 26.1663 113.522 26.2878C113.233 26.4092 112.974 26.5929 112.76 26.8265C112.548 27.0599 112.387 27.3377 112.29 27.6407C112.192 27.9438 112.16 28.2649 112.195 28.5819V34.9195H110.047L110.048 24.2343ZM125.3 31.7804C125.011 33.7213 123.161 35.0527 120.795 35.0527C117.751 35.0527 115.862 32.9695 115.862 29.6286C115.862 26.2765 117.761 24.1032 120.704 24.1032C123.599 24.1032 125.419 26.1341 125.419 29.3736V30.1254H118.03V30.2585C117.996 30.6523 118.045 31.049 118.172 31.4222C118.3 31.7954 118.503 32.1365 118.77 32.4228C119.036 32.709 119.359 32.9339 119.716 33.0824C120.074 33.2309 120.459 33.2996 120.844 33.2839C121.352 33.3334 121.861 33.2138 122.296 32.9431C122.732 32.6724 123.07 32.265 123.261 31.7815H125.3V31.7804ZM118.04 28.5922H123.271C123.3 28.0587 123.166 27.5293 122.887 27.0777C122.609 26.6261 122.199 26.2748 121.716 26.0727C121.396 25.9379 121.051 25.8724 120.704 25.8801C120.355 25.8782 120.009 25.9469 119.685 26.0822C119.362 26.2175 119.068 26.4168 118.819 26.6688C118.572 26.9208 118.376 27.2205 118.242 27.5506C118.108 27.8808 118.04 28.2348 118.04 28.5922ZM41.3515 12.2084H42.2735C42.4319 12.2284 42.5927 12.2148 42.7457 12.1682C42.8987 12.1217 43.0407 12.0433 43.1628 11.9379C43.2848 11.8325 43.3843 11.7024 43.455 11.5558C43.5257 11.4092 43.566 11.2492 43.5735 11.0859C43.5735 10.4365 43.0945 10.0177 42.2835 10.0177C42.0388 9.98299 41.7895 10.0244 41.5681 10.1365C41.3466 10.2487 41.1632 10.4263 41.0415 10.6465C40.9615 10.793 40.9105 10.9538 40.8915 11.1207H39.8795C39.8968 10.8179 39.9751 10.5221 40.1093 10.2517C40.2435 9.98139 40.4308 9.74235 40.6595 9.54961C40.8883 9.35627 41.1534 9.21314 41.4384 9.1291C41.7235 9.04507 42.0223 9.02191 42.3165 9.06108C43.6735 9.06108 44.6295 9.8374 44.6295 10.9548C44.6327 11.3297 44.5099 11.6943 44.2818 11.9874C44.0536 12.2806 43.734 12.4844 43.3765 12.5648V12.6478C43.8015 12.6682 44.2005 12.8567 44.4875 13.1762C44.7755 13.4958 44.9275 13.9177 44.9105 14.351C44.8634 14.8208 44.6792 15.2652 44.3818 15.6263C44.0845 15.9873 43.6878 16.2481 43.2435 16.3747C42.9483 16.4594 42.6396 16.4831 42.3355 16.4444C41.8767 16.5078 41.4099 16.4279 40.9962 16.2152C40.5824 16.0025 40.241 15.6669 40.0165 15.2522C39.8685 14.9769 39.7763 14.6739 39.7455 14.3612H40.7735C40.8355 15.0341 41.4415 15.4694 42.3355 15.4694C43.2285 15.4694 43.8125 14.9808 43.8125 14.2926C43.8125 13.5951 43.2625 13.166 42.3025 13.166H41.3515V12.2094V12.2084ZM46.0785 14.7709C46.0785 13.8143 46.7765 13.2633 48.0135 13.1844L49.4235 13.1025V12.6426C49.4235 12.0814 49.0615 11.7649 48.3575 11.7649C47.7845 11.7649 47.3885 11.98 47.2735 12.3559H46.2795C46.3845 11.4423 47.2265 10.8575 48.4065 10.8575C49.7105 10.8575 50.4465 11.5201 50.4465 12.6426V16.2744H49.4565V15.5267H49.3765C49.2113 15.7952 48.9794 16.014 48.7046 16.1606C48.4299 16.3073 48.122 16.3766 47.8125 16.3614C47.4837 16.3961 47.1527 16.3241 46.8661 16.1556C46.5795 15.9871 46.3519 15.7305 46.2155 15.4223C46.1255 15.2174 46.0795 14.9952 46.0785 14.7709ZM49.4235 14.3172V13.8727L48.1525 13.9556C47.4355 14.0048 47.1105 14.2537 47.1105 14.7217C47.1105 15.2 47.5175 15.4796 48.0755 15.4796C48.3218 15.5048 48.5699 15.4533 48.7872 15.3318C49.0045 15.2103 49.181 15.0244 49.2935 14.7985C49.368 14.6487 49.4122 14.4849 49.4235 14.3172ZM53.1735 11.8427V16.2744H52.1455V10.9589H55.5715V11.8427H53.1735ZM61.7955 13.6146C61.7955 15.3034 60.9595 16.3614 59.6455 16.3614C59.3234 16.3837 59.0019 16.3117 58.7184 16.1537C58.4349 15.9957 58.2011 15.7584 58.0445 15.4694H57.9635V18.0401H56.9365V10.9599H57.9245V11.8376H58.0015C58.1604 11.538 58.3971 11.2891 58.6855 11.1187C58.9738 10.9482 59.3026 10.8628 59.6355 10.8718C60.9595 10.8718 61.7955 11.9257 61.7955 13.6146ZM60.7395 13.6146C60.7395 12.4921 60.2195 11.8141 59.3495 11.8141C58.4845 11.8141 57.9445 12.5064 57.9445 13.6187C57.9445 14.7268 58.4845 15.4202 59.3445 15.4202C60.2195 15.4202 60.7395 14.7422 60.7395 13.6146ZM63.1635 18.1773V17.275C63.2745 17.2893 63.3865 17.2955 63.4985 17.2945C63.7168 17.3107 63.9334 17.2441 64.1069 17.1073C64.2804 16.9706 64.3988 16.7733 64.4395 16.5529L64.5165 16.2938L62.6335 10.9589H63.7515L65.0555 15.1795H65.1375L66.4375 10.9589H67.5265L65.5865 16.4925C65.1415 17.7861 64.6495 18.2009 63.5885 18.2009C63.5035 18.2009 63.2585 18.1906 63.1635 18.1763V18.1773ZM68.3265 14.7658H69.3485C69.4485 15.2348 69.8785 15.4786 70.4805 15.4786C71.1645 15.4786 71.5845 15.1713 71.5845 14.693C71.5845 14.1809 71.2075 13.9351 70.4805 13.9351H69.7015V13.1209H70.4675C71.0875 13.1209 71.4035 12.8772 71.4035 12.4337C71.4035 12.0425 71.0985 11.7455 70.4675 11.7455C69.8925 11.7455 69.4725 11.9943 69.4065 12.4132H68.4165C68.4925 11.9312 68.7494 11.4986 69.1323 11.2078C69.5153 10.917 69.994 10.7909 70.4665 10.8565C71.7035 10.8565 72.4115 11.428 72.4115 12.3262C72.4174 12.5766 72.3389 12.8215 72.1892 13.0196C72.0395 13.2177 71.8277 13.3569 71.5895 13.4138V13.4968C71.8728 13.5341 72.1329 13.6764 72.3206 13.8969C72.5084 14.1173 72.6108 14.4005 72.6085 14.693C72.6085 15.7029 71.7665 16.3717 70.4805 16.3717C69.3445 16.3717 68.4205 15.8391 68.3265 14.7658ZM74.0875 16.2744V10.9589H75.1045V14.6152H75.1865L77.5845 10.9589H78.6025V16.2744H77.5835V12.5996H77.5065L75.1045 16.2744H74.0875ZM84.2095 11.8427H82.5715V16.2744H81.5435V11.8427H79.9035V10.9589H84.2095V11.8417V11.8427ZM89.7425 14.8395C89.6023 15.326 89.2994 15.7466 88.887 16.0274C88.4745 16.3083 87.9788 16.4316 87.4865 16.3758C86.9705 16.3895 86.4642 16.2302 86.0448 15.9219C85.6254 15.6137 85.3159 15.1735 85.1635 14.6685C85.0633 14.3338 85.0357 13.9808 85.0825 13.634C85.0367 13.2857 85.0648 12.9314 85.1649 12.5952C85.265 12.259 85.4347 11.9489 85.6625 11.686C85.8901 11.4224 86.1705 11.2118 86.4845 11.0687C86.7985 10.9256 87.1388 10.8532 87.4825 10.8565C88.9295 10.8565 89.8045 11.8673 89.8045 13.5357V13.9024H86.1295V13.9607C86.1045 14.2551 86.1712 14.55 86.3199 14.8032C86.4687 15.0563 86.6918 15.2548 86.9575 15.37C87.1335 15.4468 87.3235 15.4858 87.5155 15.4827C87.7606 15.5126 88.0089 15.4674 88.2291 15.353C88.4492 15.2385 88.6313 15.0598 88.7525 14.8395H89.7425ZM86.1295 13.126H88.7565C88.7697 12.9474 88.7461 12.7679 88.6874 12.5991C88.6286 12.4304 88.5359 12.2761 88.4152 12.1464C88.2946 12.0167 88.1487 11.9143 87.987 11.8459C87.8253 11.7776 87.6513 11.7447 87.4765 11.7495C87.2092 11.7461 86.9471 11.825 86.7242 11.9761C86.5013 12.1271 86.3279 12.3433 86.2265 12.5965C86.1605 12.7645 86.1265 12.9448 86.1295 13.126ZM94.0955 10.9589H96.4435C97.4605 10.9589 98.0585 11.4863 98.0585 12.3108C98.0602 12.573 97.9737 12.8278 97.8134 13.0323C97.6531 13.2368 97.4288 13.3784 97.1785 13.4333V13.5163C97.4818 13.5361 97.7663 13.6743 97.9733 13.9023C98.1803 14.1303 98.2941 14.4309 98.2915 14.7422C98.2915 15.6691 97.6085 16.2744 96.4665 16.2744H94.0965L94.0955 10.9589ZM95.1135 11.7649V13.1404H96.1315C96.7515 13.1404 97.0495 12.8966 97.0495 12.447C97.0495 12.0332 96.7905 11.7649 96.2455 11.7649H95.1135ZM95.1135 13.9116V15.4683H96.3315C96.9385 15.4683 97.2635 15.1949 97.2635 14.693C97.2635 14.1605 96.8955 13.9116 96.2035 13.9116H95.1135Z" fill="white"/>
<rect x="39" y="7" width="62" height="12" fill="black"/>
<path d="M42.32 16C42.24 16 42.172 15.976 42.116 15.928C42.068 15.872 42.044 15.804 42.044 15.724V7.888C42.044 7.8 42.068 7.732 42.116 7.684C42.172 7.628 42.24 7.6 42.32 7.6H45.044C46.252 7.6 47.124 7.872 47.66 8.416C48.196 8.952 48.476 9.764 48.5 10.852C48.508 11.084 48.512 11.396 48.512 11.788C48.512 12.18 48.508 12.496 48.5 12.736C48.476 13.496 48.348 14.116 48.116 14.596C47.892 15.068 47.536 15.42 47.048 15.652C46.56 15.884 45.912 16 45.104 16H42.32ZM45.044 14.98C45.596 14.98 46.032 14.904 46.352 14.752C46.68 14.6 46.916 14.36 47.06 14.032C47.212 13.696 47.296 13.248 47.312 12.688C47.328 12.208 47.336 11.908 47.336 11.788C47.336 11.66 47.328 11.364 47.312 10.9C47.296 10.108 47.108 9.532 46.748 9.172C46.388 8.804 45.8 8.62 44.984 8.62H43.22V14.98H45.044ZM52.7174 16.12C51.8374 16.12 51.1534 15.872 50.6654 15.376C50.1854 14.88 49.9294 14.22 49.8974 13.396L49.8854 12.88L49.8974 12.364C49.9294 11.548 50.1894 10.892 50.6774 10.396C51.1654 9.892 51.8454 9.64 52.7174 9.64C53.5894 9.64 54.2694 9.892 54.7574 10.396C55.2454 10.892 55.5054 11.548 55.5374 12.364C55.5454 12.452 55.5494 12.624 55.5494 12.88C55.5494 13.136 55.5454 13.308 55.5374 13.396C55.5054 14.22 55.2454 14.88 54.7574 15.376C54.2774 15.872 53.5974 16.12 52.7174 16.12ZM52.7174 15.196C53.2214 15.196 53.6174 15.036 53.9054 14.716C54.2014 14.396 54.3614 13.936 54.3854 13.336C54.3934 13.256 54.3974 13.104 54.3974 12.88C54.3974 12.656 54.3934 12.504 54.3854 12.424C54.3614 11.824 54.2014 11.364 53.9054 11.044C53.6174 10.724 53.2214 10.564 52.7174 10.564C52.2134 10.564 51.8134 10.724 51.5174 11.044C51.2214 11.364 51.0654 11.824 51.0494 12.424L51.0374 12.88L51.0494 13.336C51.0654 13.936 51.2214 14.396 51.5174 14.716C51.8134 15.036 52.2134 15.196 52.7174 15.196ZM58.544 16C58.44 16 58.36 15.976 58.304 15.928C58.248 15.88 58.2 15.804 58.16 15.7L56.456 10.132L56.432 10.012C56.432 9.94 56.456 9.88 56.504 9.832C56.56 9.784 56.62 9.76 56.684 9.76H57.212C57.292 9.76 57.356 9.784 57.404 9.832C57.46 9.872 57.496 9.916 57.512 9.964L58.844 14.488L60.272 10.012C60.288 9.948 60.324 9.892 60.38 9.844C60.436 9.788 60.512 9.76 60.608 9.76H61.016C61.112 9.76 61.188 9.788 61.244 9.844C61.3 9.892 61.336 9.948 61.352 10.012L62.78 14.488L64.112 9.964C64.12 9.924 64.148 9.88 64.196 9.832C64.252 9.784 64.32 9.76 64.4 9.76H64.94C65.004 9.76 65.06 9.784 65.108 9.832C65.156 9.88 65.18 9.94 65.18 10.012L65.156 10.132L63.464 15.7C63.424 15.804 63.376 15.88 63.32 15.928C63.264 15.976 63.18 16 63.068 16H62.6C62.384 16 62.252 15.9 62.204 15.7L60.812 11.404L59.42 15.7C59.356 15.9 59.22 16 59.012 16H58.544ZM66.7851 16C66.7051 16 66.6371 15.976 66.5811 15.928C66.5331 15.872 66.5091 15.804 66.5091 15.724V10.036C66.5091 9.956 66.5331 9.892 66.5811 9.844C66.6371 9.788 66.7051 9.76 66.7851 9.76H67.3491C67.4291 9.76 67.4931 9.788 67.5411 9.844C67.5971 9.892 67.6251 9.956 67.6251 10.036V10.564C67.8571 10.268 68.1291 10.04 68.4411 9.88C68.7611 9.72 69.1571 9.64 69.6291 9.64C70.3971 9.64 70.9931 9.888 71.4171 10.384C71.8491 10.872 72.0651 11.524 72.0651 12.34V15.724C72.0651 15.804 72.0371 15.872 71.9811 15.928C71.9331 15.976 71.8691 16 71.7891 16H71.1891C71.1091 16 71.0411 15.976 70.9851 15.928C70.9371 15.872 70.9131 15.804 70.9131 15.724V12.4C70.9131 11.832 70.7731 11.392 70.4931 11.08C70.2211 10.768 69.8251 10.612 69.3051 10.612C68.8011 10.612 68.4011 10.772 68.1051 11.092C67.8091 11.404 67.6611 11.84 67.6611 12.4V15.724C67.6611 15.804 67.6331 15.872 67.5771 15.928C67.5291 15.976 67.4651 16 67.3851 16H66.7851ZM74.0744 16C73.9944 16 73.9264 15.976 73.8704 15.928C73.8224 15.872 73.7984 15.804 73.7984 15.724V7.756C73.7984 7.676 73.8224 7.612 73.8704 7.564C73.9264 7.508 73.9944 7.48 74.0744 7.48H74.6384C74.7184 7.48 74.7824 7.508 74.8304 7.564C74.8864 7.612 74.9144 7.676 74.9144 7.756V15.724C74.9144 15.804 74.8864 15.872 74.8304 15.928C74.7824 15.976 74.7184 16 74.6384 16H74.0744ZM79.2604 16.12C78.3804 16.12 77.6964 15.872 77.2084 15.376C76.7284 14.88 76.4724 14.22 76.4404 13.396L76.4284 12.88L76.4404 12.364C76.4724 11.548 76.7324 10.892 77.2204 10.396C77.7084 9.892 78.3884 9.64 79.2604 9.64C80.1324 9.64 80.8124 9.892 81.3004 10.396C81.7884 10.892 82.0484 11.548 82.0804 12.364C82.0884 12.452 82.0924 12.624 82.0924 12.88C82.0924 13.136 82.0884 13.308 82.0804 13.396C82.0484 14.22 81.7884 14.88 81.3004 15.376C80.8204 15.872 80.1404 16.12 79.2604 16.12ZM79.2604 15.196C79.7644 15.196 80.1604 15.036 80.4484 14.716C80.7444 14.396 80.9044 13.936 80.9284 13.336C80.9364 13.256 80.9404 13.104 80.9404 12.88C80.9404 12.656 80.9364 12.504 80.9284 12.424C80.9044 11.824 80.7444 11.364 80.4484 11.044C80.1604 10.724 79.7644 10.564 79.2604 10.564C78.7564 10.564 78.3564 10.724 78.0604 11.044C77.7644 11.364 77.6084 11.824 77.5924 12.424L77.5804 12.88L77.5924 13.336C77.6084 13.936 77.7644 14.396 78.0604 14.716C78.3564 15.036 78.7564 15.196 79.2604 15.196ZM85.335 16.12C84.943 16.12 84.579 16.04 84.243 15.88C83.907 15.72 83.639 15.504 83.439 15.232C83.247 14.952 83.151 14.644 83.151 14.308C83.151 13.78 83.367 13.348 83.799 13.012C84.239 12.668 84.831 12.444 85.575 12.34L87.363 12.088V11.74C87.363 10.924 86.895 10.516 85.959 10.516C85.607 10.516 85.319 10.592 85.095 10.744C84.871 10.888 84.703 11.06 84.591 11.26C84.567 11.332 84.535 11.384 84.495 11.416C84.463 11.448 84.415 11.464 84.351 11.464H83.835C83.763 11.464 83.699 11.44 83.643 11.392C83.595 11.336 83.571 11.272 83.571 11.2C83.579 11.008 83.667 10.792 83.835 10.552C84.011 10.304 84.279 10.092 84.639 9.916C84.999 9.732 85.443 9.64 85.971 9.64C86.867 9.64 87.511 9.852 87.903 10.276C88.295 10.692 88.491 11.212 88.491 11.836V15.724C88.491 15.804 88.463 15.872 88.407 15.928C88.359 15.976 88.295 16 88.215 16H87.663C87.583 16 87.515 15.976 87.459 15.928C87.411 15.872 87.387 15.804 87.387 15.724V15.208C87.211 15.464 86.955 15.68 86.619 15.856C86.283 16.032 85.855 16.12 85.335 16.12ZM85.587 15.22C86.107 15.22 86.531 15.052 86.859 14.716C87.195 14.372 87.363 13.88 87.363 13.24V12.904L85.971 13.108C85.403 13.188 84.975 13.324 84.687 13.516C84.399 13.7 84.255 13.936 84.255 14.224C84.255 14.544 84.387 14.792 84.651 14.968C84.915 15.136 85.227 15.22 85.587 15.22ZM92.4961 16.12C91.6641 16.12 91.0361 15.848 90.6121 15.304C90.1881 14.76 89.9641 14.072 89.9401 13.24L89.9281 12.88L89.9401 12.52C89.9641 11.696 90.1881 11.012 90.6121 10.468C91.0361 9.916 91.6641 9.64 92.4961 9.64C93.3201 9.64 93.9681 9.932 94.4401 10.516V7.756C94.4401 7.676 94.4641 7.612 94.5121 7.564C94.5681 7.508 94.6361 7.48 94.7161 7.48H95.2921C95.3721 7.48 95.4361 7.508 95.4841 7.564C95.5401 7.612 95.5681 7.676 95.5681 7.756V15.724C95.5681 15.804 95.5401 15.872 95.4841 15.928C95.4361 15.976 95.3721 16 95.2921 16H94.7521C94.6721 16 94.6041 15.976 94.5481 15.928C94.5001 15.872 94.4761 15.804 94.4761 15.724V15.22C94.0121 15.82 93.3521 16.12 92.4961 16.12ZM92.7481 15.148C93.3001 15.148 93.7121 14.968 93.9841 14.608C94.2641 14.24 94.4161 13.804 94.4401 13.3C94.4481 13.212 94.4521 13.06 94.4521 12.844C94.4521 12.62 94.4481 12.464 94.4401 12.376C94.4241 11.904 94.2721 11.492 93.9841 11.14C93.6961 10.788 93.2841 10.612 92.7481 10.612C92.1801 10.612 91.7641 10.788 91.5001 11.14C91.2441 11.492 91.1041 11.956 91.0801 12.532L91.0681 12.88C91.0681 14.392 91.6281 15.148 92.7481 15.148ZM100.474 8.596C100.394 8.596 100.326 8.572 100.27 8.524C100.222 8.468 100.198 8.4 100.198 8.32V7.672C100.198 7.592 100.222 7.524 100.27 7.468C100.326 7.412 100.394 7.384 100.474 7.384H101.23C101.31 7.384 101.378 7.412 101.434 7.468C101.49 7.524 101.518 7.592 101.518 7.672V8.32C101.518 8.4 101.49 8.468 101.434 8.524C101.378 8.572 101.31 8.596 101.23 8.596H100.474ZM100.57 16C100.49 16 100.422 15.976 100.366 15.928C100.318 15.872 100.294 15.804 100.294 15.724V10.036C100.294 9.956 100.318 9.892 100.366 9.844C100.422 9.788 100.49 9.76 100.57 9.76H101.146C101.226 9.76 101.29 9.788 101.338 9.844C101.394 9.892 101.422 9.956 101.422 10.036V15.724C101.422 15.804 101.394 15.872 101.338 15.928C101.29 15.976 101.226 16 101.146 16H100.57ZM103.477 16C103.397 16 103.329 15.976 103.273 15.928C103.225 15.872 103.201 15.804 103.201 15.724V10.036C103.201 9.956 103.225 9.892 103.273 9.844C103.329 9.788 103.397 9.76 103.477 9.76H104.041C104.121 9.76 104.185 9.788 104.233 9.844C104.289 9.892 104.317 9.956 104.317 10.036V10.564C104.549 10.268 104.821 10.04 105.133 9.88C105.453 9.72 105.849 9.64 106.321 9.64C107.089 9.64 107.685 9.888 108.109 10.384C108.541 10.872 108.757 11.524 108.757 12.34V15.724C108.757 15.804 108.729 15.872 108.673 15.928C108.625 15.976 108.561 16 108.48 16H107.881C107.801 16 107.733 15.976 107.677 15.928C107.629 15.872 107.605 15.804 107.605 15.724V12.4C107.605 11.832 107.465 11.392 107.185 11.08C106.913 10.768 106.517 10.612 105.997 10.612C105.493 10.612 105.093 10.772 104.797 11.092C104.501 11.404 104.353 11.84 104.353 12.4V15.724C104.353 15.804 104.325 15.872 104.269 15.928C104.221 15.976 104.157 16 104.076 16H103.477Z" fill="white"/>
</svg>
