<svg width="149" height="46" fill="none" xmlns="http://www.w3.org/2000/svg"><path d="M143 0H5.5a5.435 5.435 0 0 0-3.89 1.65A5.703 5.703 0 0 0 0 5.633v33.798c0 1.494.58 2.927 1.61 3.983a5.435 5.435 0 0 0 3.89 1.65H143a5.433 5.433 0 0 0 3.889-1.65 5.7 5.7 0 0 0 1.611-3.983V5.633a5.7 5.7 0 0 0-1.611-3.983A5.433 5.433 0 0 0 143 0Z" fill="#000"/><path d="M70.373 25.427a3.926 3.926 0 0 0-2.198.68 3.997 3.997 0 0 0-1.454 1.803 4.052 4.052 0 0 0-.22 2.315c.154.777.533 1.49 1.088 2.05.555.558 1.261.938 2.03 1.091a3.916 3.916 0 0 0 2.287-.233 3.97 3.97 0 0 0 1.774-1.48c.433-.66.664-1.434.662-2.227a3.982 3.982 0 0 0-.286-1.544 3.944 3.944 0 0 0-.86-1.308 3.889 3.889 0 0 0-1.297-.864 3.854 3.854 0 0 0-1.527-.283h.001Zm0 6.426c-.48.034-.96-.079-1.375-.324a2.416 2.416 0 0 1-.957-1.05 2.453 2.453 0 0 1 .408-2.7 2.373 2.373 0 0 1 2.631-.607c.449.177.834.488 1.106.89.271.401.417.877.418 1.364a2.34 2.34 0 0 1-.61 1.69 2.289 2.289 0 0 1-1.62.737Zm-8.665-6.426a3.926 3.926 0 0 0-2.198.681 3.997 3.997 0 0 0-1.454 1.802 4.052 4.052 0 0 0-.22 2.316c.155.777.534 1.49 1.089 2.049a3.945 3.945 0 0 0 2.03 1.091 3.917 3.917 0 0 0 2.287-.233 3.97 3.97 0 0 0 1.773-1.48c.434-.66.665-1.435.663-2.227a3.982 3.982 0 0 0-.287-1.544 3.942 3.942 0 0 0-.86-1.308 3.888 3.888 0 0 0-1.296-.864 3.854 3.854 0 0 0-1.527-.283Zm0 6.426c-.48.034-.96-.079-1.375-.324a2.417 2.417 0 0 1-.957-1.05 2.453 2.453 0 0 1 .408-2.7 2.373 2.373 0 0 1 2.631-.607c.449.177.834.488 1.105.89.272.401.418.877.42 1.364a2.341 2.341 0 0 1-.61 1.69 2.288 2.288 0 0 1-1.622.737ZM51.406 26.66v1.693h4.017a3.567 3.567 0 0 1-.93 2.136 4.066 4.066 0 0 1-3.105 1.242 4.437 4.437 0 0 1-3.156-1.323 4.544 4.544 0 0 1-1.307-3.193c0-1.198.47-2.346 1.307-3.193a4.436 4.436 0 0 1 3.156-1.323 4.286 4.286 0 0 1 3.05 1.214l1.18-1.195a5.851 5.851 0 0 0-1.935-1.286 5.797 5.797 0 0 0-2.277-.426 6.08 6.08 0 0 0-2.43.395 6.137 6.137 0 0 0-2.083 1.329 6.222 6.222 0 0 0-1.4 2.049 6.283 6.283 0 0 0 0 4.881 6.22 6.22 0 0 0 1.4 2.05 6.136 6.136 0 0 0 2.083 1.329 6.08 6.08 0 0 0 2.43.395 5.584 5.584 0 0 0 2.327-.407 5.641 5.641 0 0 0 1.959-1.334 5.684 5.684 0 0 0 1.45-3.98 5.962 5.962 0 0 0-.084-1.053h-5.652Zm42.127 1.317a3.764 3.764 0 0 0-1.3-1.807 3.693 3.693 0 0 0-2.084-.743 3.68 3.68 0 0 0-1.48.308 3.718 3.718 0 0 0-1.236.877 3.805 3.805 0 0 0-1.004 2.814 4.012 4.012 0 0 0 .761 2.39 3.934 3.934 0 0 0 2.024 1.453c.811.251 1.682.23 2.48-.061a3.94 3.94 0 0 0 1.95-1.552l-1.348-.941c-.2.34-.486.62-.827.812a2.219 2.219 0 0 1-1.116.289 1.98 1.98 0 0 1-1.143-.307 2.015 2.015 0 0 1-.772-.907l5.29-2.21-.195-.415Zm-5.392 1.336a2.227 2.227 0 0 1 .55-1.612 2.176 2.176 0 0 1 1.523-.73c.3-.02.598.052.857.205.26.152.47.378.603.65l-3.534 1.487Zm-4.296 3.876h1.739V21.43h-1.739v11.76ZM81 26.321h-.065a2.705 2.705 0 0 0-2.083-.894 3.94 3.94 0 0 0-2.675 1.24 4.034 4.034 0 0 0-1.094 2.764c0 1.029.392 2.019 1.094 2.764a3.94 3.94 0 0 0 2.675 1.239 2.65 2.65 0 0 0 1.146-.235c.36-.163.68-.404.937-.706H81v.574c0 1.533-.809 2.352-2.11 2.352a2.177 2.177 0 0 1-1.213-.403 2.217 2.217 0 0 1-.786-1.018l-1.507.63a3.755 3.755 0 0 0 1.389 1.737A3.688 3.688 0 0 0 78.89 37c2.036 0 3.719-1.214 3.719-4.168v-7.17H81v.66Zm-1.999 5.532a2.386 2.386 0 0 1-1.608-.756 2.442 2.442 0 0 1-.655-1.666c0-.62.235-1.217.656-1.667.42-.45.995-.721 1.607-.756a2.2 2.2 0 0 1 1.567.754 2.253 2.253 0 0 1 .553 1.664 2.265 2.265 0 0 1-.547 1.673 2.214 2.214 0 0 1-1.573.754Zm22.676-10.424h-4.166v11.76h1.74v-4.46h2.426a3.581 3.581 0 0 0 2.715-.975 3.688 3.688 0 0 0 0-5.348 3.581 3.581 0 0 0-2.715-.976Zm0 5.645H99.25v-4.008h2.464c.394 0 .779.117 1.106.338.328.221.583.536.734.904a2.033 2.033 0 0 1-.434 2.195c-.372.378-.879.59-1.406.59l-.037-.02Zm10.729-1.684a3.215 3.215 0 0 0-1.814.43c-.55.319-.996.794-1.282 1.367l1.534.649a1.66 1.66 0 0 1 .67-.667c.282-.152.602-.218.92-.19a1.653 1.653 0 0 1 1.244.363 1.688 1.688 0 0 1 .615 1.152v.114a3.848 3.848 0 0 0-1.813-.452c-1.654 0-3.347.94-3.347 2.653.016.364.105.721.26 1.05a2.704 2.704 0 0 0 1.571 1.405c.341.115.702.16 1.061.132.436.025.871-.068 1.26-.27s.718-.505.953-.877h.055v.94h1.674v-4.525c0-2.06-1.543-3.255-3.524-3.255l-.037-.02Zm-.214 6.444c-.567 0-1.357-.291-1.357-.997 0-.94.985-1.26 1.859-1.26a3.06 3.06 0 0 1 1.581.395c-.059.51-.298.983-.674 1.329a2.087 2.087 0 0 1-1.372.552l-.037-.019Zm9.874-6.171-1.99 5.099h-.055l-2.064-5.1h-1.86l3.096 7.132-1.766 3.961h1.859L124 25.663h-1.934Zm-15.62 7.526h1.73V21.43h-1.73v11.76Z" fill="#fff"/><path d="M11.49 8.495a2.29 2.29 0 0 0-.483 1.577v24.92a2.22 2.22 0 0 0 .517 1.578l.077.09L25.197 22.7v-.338L11.567 8.416l-.076.079Z" fill="url(#a)"/><path d="m29.706 27.354-4.51-4.653v-.338l4.51-4.653.1.068 5.4 3.132c1.54.89 1.54 2.354 0 3.255l-5.379 3.132-.12.057Z" fill="url(#b)"/><path d="m29.838 27.285-4.642-4.754L11.49 36.57a1.754 1.754 0 0 0 2.277.079l16.07-9.363" fill="url(#c)"/><path d="M29.838 17.778 13.766 8.427a1.744 1.744 0 0 0-2.277.067l13.707 14.038 4.642-4.754Z" fill="url(#d)"/><path opacity=".2" d="m29.706 27.185-15.94 9.294a1.797 1.797 0 0 1-2.2 0l-.076.079.077.09a1.797 1.797 0 0 0 2.2 0l16.07-9.362-.13-.101Z" fill="#000"/><path opacity=".12" d="M11.49 36.41a2.29 2.29 0 0 1-.484-1.588v.17a2.219 2.219 0 0 0 .517 1.577l.077-.08-.11-.078Zm23.716-12.414-5.5 3.188.1.101 5.4-3.131c.32-.139.596-.362.8-.648a2 2 0 0 0 .366-.975c-.069.32-.21.62-.412.875-.203.254-.46.456-.754.59Z" fill="#000"/><path opacity=".25" d="m13.767 8.584 21.44 12.483c.292.134.55.336.753.59.202.254.343.554.412.874a2 2 0 0 0-.365-.975 1.933 1.933 0 0 0-.8-.647L13.766 8.426c-1.529-.9-2.76-.157-2.76 1.645v.17c0-1.802 1.231-2.546 2.76-1.656Z" fill="#fff"/><path d="M45.48 17a.23.23 0 0 1-.168-.072.23.23 0 0 1-.072-.168c0-.064.004-.108.012-.132l2.976-7.764c.064-.176.192-.264.384-.264h.816c.192 0 .32.088.384.264l2.964 7.764.024.132a.23.23 0 0 1-.072.168.23.23 0 0 1-.168.072h-.612a.31.31 0 0 1-.204-.06.378.378 0 0 1-.096-.144l-.66-1.704h-3.936l-.66 1.704a.34.34 0 0 1-.108.144.29.29 0 0 1-.192.06h-.612Zm5.16-2.94L49.02 9.8l-1.62 4.26h3.24ZM55.724 17c-.208 0-.356-.1-.444-.3l-2.22-5.568-.024-.12a.244.244 0 0 1 .252-.252h.576c.136 0 .236.068.3.204l1.824 4.728 1.824-4.728c.072-.136.168-.204.288-.204h.588a.23.23 0 0 1 .168.072.227.227 0 0 1 .084.18l-.024.12-2.232 5.568c-.088.2-.236.3-.444.3h-.516Zm5.978.12c-.392 0-.756-.08-1.092-.24a2.091 2.091 0 0 1-.804-.648 1.599 1.599 0 0 1-.288-.924c0-.528.216-.96.648-1.296.44-.344 1.032-.568 1.776-.672l1.788-.252v-.348c0-.816-.468-1.224-1.404-1.224-.352 0-.64.076-.864.228a1.474 1.474 0 0 0-.504.516.326.326 0 0 1-.096.156c-.032.032-.08.048-.144.048h-.516a.287.287 0 0 1-.192-.072.287.287 0 0 1-.072-.192c.008-.192.096-.408.264-.648.176-.248.444-.46.804-.636.36-.184.804-.276 1.332-.276.896 0 1.54.212 1.932.636.392.416.588.936.588 1.56v3.888c0 .08-.028.148-.084.204a.26.26 0 0 1-.192.072h-.552a.303.303 0 0 1-.204-.072.303.303 0 0 1-.072-.204v-.516c-.176.256-.432.472-.768.648-.336.176-.764.264-1.284.264Zm.252-.9c.52 0 .944-.168 1.272-.504.336-.344.504-.836.504-1.476v-.336l-1.392.204c-.568.08-.996.216-1.284.408-.288.184-.432.42-.432.708 0 .32.132.568.396.744.264.168.576.252.936.252Zm4.81-6.624a.303.303 0 0 1-.205-.072.303.303 0 0 1-.072-.204v-.648c0-.08.024-.148.072-.204a.278.278 0 0 1 .204-.084h.756c.08 0 .148.028.204.084a.278.278 0 0 1 .084.204v.648c0 .08-.028.148-.084.204a.303.303 0 0 1-.204.072h-.756ZM66.858 17a.303.303 0 0 1-.204-.072.303.303 0 0 1-.072-.204v-5.688a.26.26 0 0 1 .072-.192.278.278 0 0 1 .204-.084h.576a.24.24 0 0 1 .192.084.24.24 0 0 1 .084.192v5.688c0 .08-.028.148-.084.204a.26.26 0 0 1-.192.072h-.576Zm2.919 0a.303.303 0 0 1-.204-.072.303.303 0 0 1-.072-.204V8.756a.26.26 0 0 1 .072-.192.278.278 0 0 1 .204-.084h.564a.24.24 0 0 1 .192.084.24.24 0 0 1 .084.192v7.968c0 .08-.028.148-.084.204a.26.26 0 0 1-.192.072h-.564Zm4.37.12c-.392 0-.757-.08-1.093-.24a2.091 2.091 0 0 1-.804-.648 1.599 1.599 0 0 1-.288-.924c0-.528.217-.96.649-1.296.44-.344 1.032-.568 1.776-.672l1.787-.252v-.348c0-.816-.468-1.224-1.403-1.224-.353 0-.64.076-.865.228a1.474 1.474 0 0 0-.504.516.326.326 0 0 1-.096.156c-.032.032-.08.048-.144.048h-.516a.287.287 0 0 1-.192-.072.287.287 0 0 1-.072-.192c.008-.192.097-.408.264-.648.176-.248.444-.46.804-.636.36-.184.805-.276 1.333-.276.895 0 1.54.212 1.931.636.392.416.588.936.588 1.56v3.888c0 .08-.028.148-.084.204a.26.26 0 0 1-.191.072h-.553a.303.303 0 0 1-.203-.072.303.303 0 0 1-.073-.204v-.516c-.175.256-.431.472-.767.648-.337.176-.764.264-1.285.264Zm.252-.9c.52 0 .944-.168 1.271-.504.336-.344.504-.836.504-1.476v-.336l-1.391.204c-.569.08-.997.216-1.285.408-.287.184-.431.42-.431.708 0 .32.132.568.395.744.265.168.577.252.937.252Zm7.713.9c-.864 0-1.52-.3-1.968-.9v.504c0 .08-.028.148-.084.204a.26.26 0 0 1-.192.072h-.552a.303.303 0 0 1-.204-.072.303.303 0 0 1-.072-.204V8.756a.26.26 0 0 1 .072-.192.278.278 0 0 1 .204-.084h.588a.24.24 0 0 1 .192.084.26.26 0 0 1 .072.192v2.76c.472-.584 1.12-.876 1.944-.876.832 0 1.46.276 1.884.828.424.544.652 1.228.684 2.052.008.088.012.208.012.36s-.004.272-.012.36c-.032.832-.26 1.52-.684 2.064-.424.544-1.052.816-1.884.816Zm-.252-.972c.568 0 .98-.176 1.236-.528.264-.352.408-.816.432-1.392.008-.08.012-.196.012-.348 0-1.512-.56-2.268-1.68-2.268-.536 0-.948.176-1.236.528-.288.352-.44.764-.456 1.236l-.012.468.012.456c.024.504.172.94.444 1.308.28.36.696.54 1.248.54Zm4.592.852a.303.303 0 0 1-.204-.072.303.303 0 0 1-.072-.204V8.756a.26.26 0 0 1 .072-.192.278.278 0 0 1 .204-.084h.564a.24.24 0 0 1 .192.084.24.24 0 0 1 .084.192v7.968c0 .08-.028.148-.084.204a.26.26 0 0 1-.192.072h-.564Zm5.126.12c-.824 0-1.484-.252-1.98-.756-.488-.512-.756-1.208-.804-2.088l-.012-.408.012-.396c.056-.864.328-1.552.816-2.064.496-.512 1.148-.768 1.956-.768.888 0 1.576.284 2.064.852.488.56.732 1.32.732 2.28v.204c0 .08-.028.148-.084.204a.26.26 0 0 1-.192.072h-4.152v.108c.024.52.18.964.468 1.332.296.36.684.54 1.164.54.368 0 .668-.072.9-.216.24-.152.416-.308.528-.468a.648.648 0 0 1 .156-.168.42.42 0 0 1 .204-.036h.588c.072 0 .132.02.18.06.048.04.072.096.072.168 0 .176-.112.388-.336.636-.216.248-.524.464-.924.648-.392.176-.844.264-1.356.264Zm1.644-3.696v-.036c0-.552-.152-1-.456-1.344-.296-.352-.696-.528-1.2-.528s-.904.176-1.2.528c-.288.344-.432.792-.432 1.344v.036h3.288Zm7.257 3.696c-.392 0-.756-.08-1.092-.24a2.091 2.091 0 0 1-.804-.648 1.599 1.599 0 0 1-.288-.924c0-.528.216-.96.648-1.296.44-.344 1.032-.568 1.776-.672l1.788-.252v-.348c0-.816-.468-1.224-1.404-1.224-.352 0-.64.076-.864.228a1.476 1.476 0 0 0-.504.516.326.326 0 0 1-.096.156c-.032.032-.08.048-.144.048h-.516a.287.287 0 0 1-.192-.072.287.287 0 0 1-.072-.192c.008-.192.096-.408.264-.648.176-.248.444-.46.804-.636.36-.184.804-.276 1.332-.276.896 0 1.54.212 1.932.636.392.416.588.936.588 1.56v3.888c0 .08-.028.148-.084.204a.26.26 0 0 1-.192.072h-.552a.303.303 0 0 1-.204-.072.303.303 0 0 1-.072-.204v-.516c-.176.256-.432.472-.768.648-.336.176-.764.264-1.284.264Zm.252-.9c.52 0 .944-.168 1.272-.504.336-.344.504-.836.504-1.476v-.336l-1.392.204c-.568.08-.996.216-1.284.408-.288.184-.432.42-.432.708 0 .32.132.568.396.744.264.168.576.252.936.252Zm7.006.78c-1.264 0-1.896-.704-1.896-2.112V11.72h-.936a.303.303 0 0 1-.204-.072.303.303 0 0 1-.072-.204v-.408a.26.26 0 0 1 .072-.192.278.278 0 0 1 .204-.084h.936V8.756a.26.26 0 0 1 .072-.192.278.278 0 0 1 .204-.084h.564a.24.24 0 0 1 .192.084.24.24 0 0 1 .084.192v2.004h1.488a.24.24 0 0 1 .192.084.24.24 0 0 1 .084.192v.408c0 .08-.028.148-.084.204a.26.26 0 0 1-.192.072h-1.488v3.084c0 .4.068.704.204.912.136.2.36.3.672.3h.732a.24.24 0 0 1 .192.084.24.24 0 0 1 .084.192v.432c0 .08-.028.148-.084.204a.26.26 0 0 1-.192.072h-.828Z" fill="#fff"/><defs><linearGradient id="a" x1="23.987" y1="9.813" x2="5.088" y2="28.266" gradientUnits="userSpaceOnUse"><stop stop-color="#00A0FF"/><stop offset=".01" stop-color="#00A1FF"/><stop offset=".26" stop-color="#00BEFF"/><stop offset=".51" stop-color="#00D2FF"/><stop offset=".76" stop-color="#00DFFF"/><stop offset="1" stop-color="#00E3FF"/></linearGradient><linearGradient id="b" x1="37.219" y1="22.532" x2="10.61" y2="22.532" gradientUnits="userSpaceOnUse"><stop stop-color="#FFE000"/><stop offset=".41" stop-color="#FFBD00"/><stop offset=".78" stop-color="orange"/><stop offset="1" stop-color="#FF9C00"/></linearGradient><linearGradient id="c" x1="27.319" y1="25.122" x2="1.685" y2="50.14" gradientUnits="userSpaceOnUse"><stop stop-color="#FF3A44"/><stop offset="1" stop-color="#C31162"/></linearGradient><linearGradient id="d" x1="8.036" y1=".203" x2="19.479" y2="11.375" gradientUnits="userSpaceOnUse"><stop stop-color="#32A071"/><stop offset=".07" stop-color="#2DA771"/><stop offset=".48" stop-color="#15CF74"/><stop offset=".8" stop-color="#06E775"/><stop offset="1" stop-color="#00F076"/></linearGradient></defs></svg>