<svg width="83" height="46" fill="none" xmlns="http://www.w3.org/2000/svg"><rect width="82.8" height="46" rx="8" fill="#383838"/><path d="M13.122 19.215c-.976 4.218 1.138 11.374 5.27 13.826.075.045.216.116.115.271-2.619-.498-5.143-3.836-6.375-8.475-.255.052-.35.214-.45.37-.916 1.435-.775 2.923-.061 4.327 1.548 3.034 4.018 4.626 7.196 4.956.848.09 1.716.103 2.537-.253.25-.11.56-.233.586-.524.04-.42-.384-.317-.592-.388-1.986-.68-3.427-2.05-4.423-3.985-1.252-2.426-2.18-5.816-2.16-8.552.02-2.582.188-3.973 1.002-5.306-1.272.861-2.288 2.187-2.645 3.733Z" fill="url(#a)"/><path d="M29.035 12.435c1.017-.039 1.003.887.808 6.088v.718c-2.585 0-7.041-.013-9.464-.02v-.006c0-4.412.774-6.392 1.137-7.608-1.191.175-2.982.705-3.971 2.692-1.232 2.477-1.501 6.217-1.023 9.212.444 2.808 1.972 7.834 5.587 8.986.249.078.464-.175.336-.388-.666-1.08-1.932-3.888-2.087-9.672 2.047.039 7.56.116 9.485.104v7.95c0 .841.707 1.52 1.582 1.52h1.837c.876 0 1.582-.685 1.582-1.52V15.25c.121-2.73-1.683-4.153-3.392-4.153-.95 0-1.872.44-2.417 1.34Z" fill="url(#b)"/><path d="M41.67 28a.37.37 0 0 1-.272-.112.37.37 0 0 1-.112-.272V17.2c0-.117.032-.213.096-.288a.39.39 0 0 1 .288-.112h4.288c1.28 0 2.288.304 3.024.912.736.597 1.104 1.477 1.104 2.64s-.368 2.043-1.104 2.64c-.726.587-1.734.88-3.024.88h-2.384v3.744a.37.37 0 0 1-.112.272.339.339 0 0 1-.272.112h-1.52Zm4.208-5.904c.618 0 1.093-.144 1.424-.432.33-.299.496-.736.496-1.312 0-.555-.16-.987-.48-1.296-.32-.32-.8-.48-1.44-.48h-2.336v3.52h2.336Zm8.007 6.064a3.523 3.523 0 0 1-1.504-.32 2.86 2.86 0 0 1-1.072-.896 2.132 2.132 0 0 1-.384-1.232c0-.725.293-1.312.88-1.76.586-.448 1.392-.752 2.416-.912l2.192-.32v-.336c0-.47-.118-.821-.352-1.056-.235-.235-.614-.352-1.136-.352-.352 0-.64.07-.864.208a2.66 2.66 0 0 0-.512.384 11.8 11.8 0 0 1-.256.272c-.043.128-.123.192-.24.192H51.82a.382.382 0 0 1-.256-.096.346.346 0 0 1-.096-.256c.01-.267.138-.57.384-.912.256-.341.645-.635 1.168-.88.522-.245 1.162-.368 1.92-.368 1.258 0 2.176.283 2.752.848.576.565.864 1.307.864 2.224v5.024a.37.37 0 0 1-.112.272.339.339 0 0 1-.272.112h-1.296a.37.37 0 0 1-.272-.112.37.37 0 0 1-.112-.272v-.624c-.235.341-.57.624-1.008.848-.427.213-.96.32-1.6.32Zm.544-1.52c.586 0 1.066-.192 1.44-.576.373-.384.56-.944.56-1.68v-.336l-1.6.256c-.619.096-1.088.25-1.408.464-.31.213-.464.475-.464.784a.91.91 0 0 0 .432.8c.288.192.634.288 1.04.288Zm7.466 4.4a.307.307 0 0 1-.224-.096.307.307 0 0 1-.096-.224c0-.096.02-.181.064-.256l1.248-2.96-3.072-7.248a.605.605 0 0 1-.064-.224.39.39 0 0 1 .112-.24.303.303 0 0 1 .24-.112h1.296c.202 0 .346.101.432.304l2.128 5.232 2.192-5.232c.085-.203.229-.304.432-.304h1.28c.085 0 .16.032.224.096a.288.288 0 0 1 .112.224c0 .075-.022.16-.064.256l-4.528 10.48c-.096.203-.246.304-.448.304h-1.264Z" fill="#fff"/><defs><linearGradient id="a" x1="11.591" y1="6.419" x2="29.831" y2="26.083" gradientUnits="userSpaceOnUse"><stop stop-color="#A58C30"/><stop offset=".278" stop-color="#A58C30"/><stop offset=".591" stop-color="#FFECA6"/><stop offset=".828" stop-color="#BFA64B"/><stop offset="1" stop-color="#BFA64B"/></linearGradient><linearGradient id="b" x1="11.591" y1="6.419" x2="29.831" y2="26.083" gradientUnits="userSpaceOnUse"><stop stop-color="#A58C30"/><stop offset=".278" stop-color="#A58C30"/><stop offset=".591" stop-color="#FFECA6"/><stop offset=".828" stop-color="#BFA64B"/><stop offset="1" stop-color="#BFA64B"/></linearGradient></defs></svg>