<svg width="166" height="48" viewBox="0 0 166 48" fill="none" xmlns="http://www.w3.org/2000/svg">
<path d="M39.9323 15.7878C37.9572 15.1512 35.8961 14.6419 33.7063 14.2599V24.9973C33.7063 32.7215 30.3571 36.7957 24.2599 36.7957C18.1628 36.7957 14.8136 32.7215 14.8136 24.9973V14.2599C12.6238 14.6419 10.5627 15.1512 8.58759 15.7878V25.0398C8.58759 33.5279 15.6294 40.4881 24.2599 40.4881C32.8905 40.4881 39.9323 33.5279 39.9323 25.0398V15.7878ZM27.0939 8.36073C26.1922 8.27585 25.2475 8.23342 24.3029 8.23342C23.3582 8.23342 22.4136 8.27585 21.5119 8.36073V21.1777H27.0939V8.36073ZM48.6058 24.0212C48.6058 37.2626 37.6995 48 24.3029 48C10.8633 48 0 37.2626 0 24.0212C0 10.7374 10.9062 0 24.3029 0C37.6995 0 48.6058 10.7374 48.6058 24.0212Z" fill="#7000FF"/>
<path d="M122.717 24.4884C122.717 27.5865 120.956 29.0295 118.337 29.0295C115.718 29.0295 114 27.5865 114 24.4884V14.2603H108.333V24.7006C108.333 31.491 114.043 34.1648 118.38 34.1648C122.674 34.1648 128.428 31.491 128.428 24.7006V14.2603H122.76L122.717 24.4884Z" fill="#7000FF"/>
<path d="M103.481 18.9711V14.2603H85.0602V18.9711H95.9664L84.5879 29.0295V33.7828H104.168V29.0295H92.145L103.481 18.9711Z" fill="#7000FF"/>
<path d="M157.067 13.8784C153.46 13.8784 150.755 15.3214 149.424 17.5283C148.05 15.3214 145.087 13.8784 141.996 13.8784C135.942 13.8784 132.807 17.6981 132.807 22.4514V33.7829H138.432V23.2153C138.432 20.966 139.634 18.9713 142.382 18.9713C145.13 18.9713 146.547 20.9235 146.547 23.1304V33.7829H152.215V23.1304C152.215 20.8811 153.589 18.9713 156.294 18.9713C159.042 18.9713 160.33 20.966 160.33 23.2153V33.7829H165.998V22.4514C166.084 17.6981 163.121 13.8784 157.067 13.8784Z" fill="#7000FF"/>
<path d="M75.1843 24.4884C75.1843 27.5865 73.4238 29.0295 70.8046 29.0295C68.1424 29.0295 66.4679 27.5865 66.4679 24.4884V14.2603H60.8V24.7006C60.8 31.491 66.5108 34.1648 70.8475 34.1648C75.1413 34.1648 80.895 31.491 80.895 24.7006V14.2603H75.2272L75.1843 24.4884Z" fill="#7000FF"/>
</svg>
