<svg width="83" height="46" viewBox="0 0 83 46" fill="none" xmlns="http://www.w3.org/2000/svg">
<rect width="82.8" height="46" rx="8" fill="#0B528D" fill-opacity="0.1"/>
<path d="M37.9606 31.3327H33.2722L36.2047 13.2066H40.8929L37.9606 31.3327Z" fill="white"/>
<path d="M54.9558 13.6517C54.0311 13.2849 52.5643 12.88 50.7507 12.88C46.1207 12.88 42.8603 15.3481 42.8403 18.8768C42.8019 21.4802 45.1747 22.9262 46.9493 23.7943C48.7632 24.6813 49.3798 25.2603 49.3798 26.0509C49.3614 27.2653 47.9141 27.825 46.5643 27.825C44.6924 27.825 43.6895 27.5364 42.1653 26.8608L41.5479 26.5712L40.8918 30.6401C41.9915 31.1409 44.0174 31.5854 46.1207 31.6048C51.0401 31.6048 54.2428 29.1749 54.2808 25.4146C54.2995 23.3511 53.0466 21.7701 50.3453 20.4781C48.7055 19.6487 47.7013 19.0895 47.7013 18.2409C47.7205 17.4695 48.5507 16.6793 50.4018 16.6793C51.9259 16.6406 53.0458 17.0068 53.8942 17.3733L54.3182 17.5658L54.9558 13.6517Z" fill="white"/>
<path d="M61.1876 24.9113C61.5737 23.87 63.0594 19.8397 63.0594 19.8397C63.0399 19.8784 63.4448 18.7792 63.6763 18.1044L64.0039 19.6662C64.0039 19.6662 64.8918 24.005 65.0846 24.9113C64.3518 24.9113 62.1136 24.9113 61.1876 24.9113ZM66.9749 13.2066H63.3484C62.23 13.2066 61.3804 13.5341 60.8979 14.7105L53.9338 31.3325H58.8533C58.8533 31.3325 59.6632 29.0953 59.8372 28.6134C60.3769 28.6134 65.1625 28.6134 65.8568 28.6134C65.9914 29.2498 66.4162 31.3325 66.4162 31.3325H70.7572L66.9749 13.2066Z" fill="white"/>
<path d="M29.3565 13.2066L24.765 25.5669L24.2633 23.0601C23.4144 20.1675 20.7522 17.0249 17.7812 15.4622L21.9869 31.3135H26.9448L34.3142 13.2066H29.3565Z" fill="white"/>
<path d="M20.5003 13.2066H12.9571L12.8799 13.5728C18.7641 15.077 22.661 18.7028 24.2621 23.0608L22.6223 14.7303C22.3524 13.5726 21.5227 13.2448 20.5003 13.2066Z" fill="white"/>
</svg>
